# xmcd CD database file
#
# Track frame offsets:
#	150
#	18700
#	33458
#
# Disc length: 691 seconds
#
# Revision: 0
# Processed by: cddbd v1.5PL3 Copyright (c) Steve Scherf et al.
# Submitted via: CDex 1.40Release
#
DISCID=1f02b103
DTITLE=細川ふみえ - だっこしてチョ
DYEAR=1993
DGENRE=Pop
TTITLE0=だっこしてチョ
TTITLE1=おねむ派宣言ZZZ．．．
TTITLE2=だっこしてチョ(オリジナルカラオケ)
EXTD=YEAR: 1993 ID3G: 13
EXTT0=
EXTT1=
EXTT2=
PLAYORDER=
